<svg width="146" height="138" viewBox="0 0 146 138" fill="none" xmlns="http://www.w3.org/2000/svg">
<path d="M16.9294 65.4058C12.2763 65.4058 8.53896 63.9357 5.71739 60.9956C2.94532 58.0554 1.55929 54.019 1.55929 48.8862V19.2854C1.55929 12.9067 2.82157 8.09786 5.34613 4.85872C7.8707 1.61957 11.8308 0 17.2264 0C21.929 0 25.7159 1.29566 28.587 3.88697C31.458 6.47829 32.8936 10.2158 32.8936 15.0994V26.1623H20.1965V16.6691C20.1965 14.8253 19.9737 13.5546 19.5282 12.8569C19.0827 12.1592 18.3155 11.8104 17.2264 11.8104C16.0879 11.8104 15.2959 12.2091 14.8504 13.0064C14.4544 13.8037 14.2564 14.9748 14.2564 16.5196V48.7367C14.2564 50.431 14.5039 51.6768 14.9989 52.4741C15.4939 53.2216 16.2364 53.5954 17.2264 53.5954C19.2065 53.5954 20.1965 51.9758 20.1965 48.7367V37.1505H33.0421V49.2599C33.0421 60.0238 27.6712 65.4058 16.9294 65.4058ZM52.0512 65.4058C46.903 65.4058 42.9924 63.8361 40.3194 60.6966C37.6463 57.5073 36.3098 53.0472 36.3098 47.3164V16.7439C36.3098 11.2124 37.6463 7.05137 40.3194 4.26072C42.9924 1.42024 46.903 0 52.0512 0C57.1993 0 61.1099 1.42024 63.7829 4.26072C66.456 7.05137 67.7925 11.2124 67.7925 16.7439V47.3164C67.7925 53.097 66.456 57.5571 63.7829 60.6966C61.1099 63.8361 57.1993 65.4058 52.0512 65.4058ZM52.0512 53.5954C53.1897 53.5954 53.957 53.097 54.353 52.1004C54.749 51.1037 54.947 49.7084 54.947 47.9144V16.5196C54.947 15.1243 54.749 14.0031 54.353 13.1559C54.0065 12.2589 53.2639 11.8104 52.1254 11.8104C49.9969 11.8104 48.9326 13.43 48.9326 16.6691V47.9892C48.9326 49.833 49.1553 51.2283 49.6008 52.1751C50.0464 53.122 50.8631 53.5954 52.0512 53.5954ZM72.5225 64.8078V0.597996H85.6651L91.531 31.32V0.597996H103.857V64.8078H91.3825L84.9969 32.6655V64.8078H72.5225ZM109.086 64.8078V0.597996H134.628V13.0812H121.931V23.3218H133.96V35.6555H121.931V64.8078H109.086ZM7.57369 138V86.1239H0V73.7902H27.9187V86.1239H20.345V138H7.57369ZM31.101 138V73.7902H56.6438V86.1986H44.0952V98.6818H56.124V110.791H44.0952V125.517H57.4604V138H31.101ZM61.2833 73.7902H80.8858C84.0044 73.7902 86.4052 74.5128 88.0882 75.9579C89.8207 77.3533 90.984 79.3466 91.578 81.9379C92.1721 84.4794 92.4691 87.7434 92.4691 91.7301C92.4691 95.3679 91.9988 98.2084 91.0583 100.252C90.1178 102.295 88.4842 103.715 86.1577 104.512C88.0882 104.911 89.4742 105.883 90.3158 107.427C91.2068 108.972 91.6523 111.065 91.6523 113.706L91.5038 138H79.0295V112.884C79.0295 111.09 78.683 109.944 77.99 109.446C77.2969 108.947 76.0347 108.698 74.2031 108.698V138H61.2833V73.7902ZM77.3217 97.5605C79.1037 97.5605 79.9948 95.617 79.9948 91.7301C79.9948 90.0358 79.9205 88.765 79.772 87.9178C79.6235 87.0707 79.3512 86.4976 78.9552 86.1986C78.5592 85.8498 77.99 85.6754 77.2474 85.6754H74.2774V97.5605H77.3217ZM96.2513 138V73.7902H115.705L121.051 112.959L126.398 73.7902H146V138H134.342V91.7301L126.992 138H115.557L107.76 91.7301V138H96.2513Z" fill="black"/>
</svg>
